<svg fill="#000000" xmlns="http://www.w3.org/2000/svg"  viewBox="0 0 50 50" width="250px" height="250px"><path fill="none" stroke="#000000" stroke-linecap="round" stroke-miterlimit="10" stroke-width="2" d="M19 8V5c0-1.1.9-2 2-2h8c1.1 0 2 .9 2 2v3M8 8L42 8"/><path d="M9,8v37c0,1.654,1.346,3,3,3h26c1.654,0,3-1.346,3-3V8H9z M20,40c0,0.553-0.448,1-1,1s-1-0.447-1-1V15c0-0.552,0.448-1,1-1s1,0.448,1,1V40z M26,40c0,0.553-0.448,1-1,1s-1-0.447-1-1V15c0-0.552,0.448-1,1-1s1,0.448,1,1V40z M32,40c0,0.553-0.447,1-1,1s-1-0.447-1-1V15c0-0.552,0.447-1,1-1s1,0.448,1,1V40z"/></svg>