<?xml version="1.0" encoding="UTF-8"?>
<svg xmlns="http://www.w3.org/2000/svg" xmlns:xlink="http://www.w3.org/1999/xlink" viewBox="0 0 150 150" width="150px" height="150px">
<g id="surface32077846">
<path style=" stroke:none;fill-rule:nonzero;fill:rgb(63.921571%,63.921571%,63.921571%);fill-opacity:1;" d="M 63 9 C 34.863281 9 12 31.863281 12 60 C 12 88.136719 34.863281 111 63 111 C 74.132812 111 84.421875 107.414062 92.8125 101.34375 L 132.28125 140.71875 L 140.71875 132.28125 L 101.71875 93.1875 C 109.382812 84.257812 114 72.667969 114 60 C 114 31.863281 91.136719 9 63 9 Z M 63 15 C 87.890625 15 108 35.109375 108 60 C 108 84.890625 87.890625 105 63 105 C 38.109375 105 18 84.890625 18 60 C 18 35.109375 38.109375 15 63 15 Z M 63 15 "/>
</g>
</svg>
